<svg xmlns="http://www.w3.org/2000/svg" id="Layer_1" enable-background="new 0 0 48 48" viewBox="0 0 48 48"><path id="XMLID_948_" fill="#333333" d="M40,40V13l0-5v0c0-2.2-1.8-4-4-4h0l-1,0L8,4h0c2.2,0,4,1.8,4,4v0l0,10v12l0,10v0  c0,2.2,1.8,4,4,4h0h0c2.2,0,4-1.8,4-4v0h0.006H44"/><path fill="#333333" d="M44,40h-4H20.006H20c0,2.2-1.8,4-4,4h24h0C42.2,44,44,42.2,44,40L44,40z"/><path id="XMLID_949_" fill="#fff" d="M40,9c-0.553,0-1-0.447-1-1c0-1.654-1.346-3-3-3c-0.553,0-1-0.447-1-1s0.447-1,1-1c2.757,0,5,2.243,5,5   C41,8.553,40.553,9,40,9z"/><path id="XMLID_947_" fill="#fff" d="M12,9c-0.553,0-1-0.447-1-1c0-1.654-1.346-3-3-3C7.447,5,7,4.553,7,4s0.447-1,1-1c2.757,0,5,2.243,5,5   C13,8.553,12.553,9,12,9z"/><path id="XMLID_945_" fill="#fff" d="M4,9C3.447,9,3,8.553,3,8c0-2.757,2.243-5,5-5c0.553,0,1,0.447,1,1S8.553,5,8,5C6.346,5,5,6.346,5,8   C5,8.553,4.553,9,4,9z"/><path id="XMLID_944_" fill="#333333" d="M12,8L4,8v0c0-2.2,1.8-4,4-4h0l0,0C10.2,4,12,5.8,12,8L12,8"/><path fill="#fff" d="M21 9h9c.553 0 1-.447 1-1s-.447-1-1-1h-9c-.553 0-1 .447-1 1S20.447 9 21 9zM21 36c0-.553-.447-1-1-1h-4c-.553 0-1 .447-1 1s.447 1 1 1h4C20.553 37 21 36.553 21 36zM36 35h-4c-.553 0-1 .447-1 1s.447 1 1 1h4c.553 0 1-.447 1-1S36.553 35 36 35zM16 13h20c.553 0 1-.447 1-1s-.447-1-1-1H16c-.553 0-1 .447-1 1S15.447 13 16 13zM16 17h20c.553 0 1-.447 1-1s-.447-1-1-1H16c-.553 0-1 .447-1 1S15.447 17 16 17zM16 21h20c.553 0 1-.447 1-1s-.447-1-1-1H16c-.553 0-1 .447-1 1S15.447 21 16 21zM16 25h20c.553 0 1-.447 1-1s-.447-1-1-1H16c-.553 0-1 .447-1 1S15.447 25 16 25zM16 29h20c.553 0 1-.447 1-1s-.447-1-1-1H16c-.553 0-1 .447-1 1S15.447 29 16 29zM16 33h20c.553 0 1-.447 1-1s-.447-1-1-1H16c-.553 0-1 .447-1 1S15.447 33 16 33z"/><path fill="#fff" d="M44,39h-3V8c0-2.757-2.243-5-5-5H8C5.243,3,3,5.243,3,8c0,0.553,0.447,1,1,1h7v31c0,2.757,2.243,5,5,5h24   c2.757,0,5-2.243,5-5C45,39.447,44.553,39,44,39z M5.171,7C5.584,5.836,6.696,5,8,5c0.189,0,0.372,0.022,0.551,0.056   c0.056,0.01,0.109,0.026,0.164,0.04c0.123,0.03,0.244,0.067,0.36,0.112c0.057,0.022,0.112,0.045,0.167,0.07   c0.117,0.054,0.23,0.116,0.339,0.184C9.622,5.487,9.666,5.51,9.706,5.537c0.144,0.1,0.28,0.21,0.404,0.333   c0.021,0.02,0.037,0.044,0.057,0.065c0.101,0.106,0.195,0.219,0.28,0.339c0.032,0.046,0.061,0.094,0.091,0.141   c0.066,0.105,0.126,0.215,0.178,0.328c0.024,0.052,0.048,0.103,0.069,0.156c0.013,0.032,0.019,0.067,0.031,0.1H5.171z M19,40   c0,1.654-1.346,3-3,3s-3-1.346-3-3V8c0-0.318-0.037-0.626-0.094-0.928c-0.018-0.095-0.047-0.185-0.07-0.278   c-0.051-0.205-0.111-0.406-0.187-0.6C12.611,6.096,12.569,6,12.524,5.904c-0.086-0.184-0.182-0.36-0.288-0.531   c-0.052-0.084-0.102-0.169-0.159-0.249c-0.028-0.04-0.05-0.085-0.079-0.125H36c1.654,0,3,1.346,3,3v31H20   C19.447,39,19,39.447,19,40z M40,43H19.976c0.442-0.584,0.772-1.257,0.923-2h21.916C42.402,42.161,41.302,43,40,43z"/></svg>
